<svg width="40" height="40" viewBox="0 0 40 40" fill="none" xmlns="http://www.w3.org/2000/svg">
<path d="M27.85 22.24C27.85 22.24 27.47 11.79 21.36 10.52C21.36 10.48 21.37 10.44 21.37 10.39C21.37 9.62 20.75 9 19.98 9C19.21 9 18.59 9.62 18.59 10.39C18.59 10.44 18.59 10.48 18.6 10.53C11.78 11.86 12.09 22.24 12.09 22.24C12.09 22.24 10 23.63 10 28.16H29.97C29.97 28.16 29.99 24.37 27.86 22.24H27.85Z" fill="#727589"/>
<path d="M19.98 32.0001C21.62 32.0001 22.94 30.9101 22.94 29.5601H17.02C17.02 30.9101 18.35 32.0001 19.98 32.0001Z" fill="#727589"/>
</svg>
