<svg width="20" height="20" viewBox="0 0 20 20" fill="none" xmlns="http://www.w3.org/2000/svg">
<path d="M10 4C6.69 4 4 6.69 4 10C4 13.31 6.69 16 10 16C13.31 16 16 13.31 16 10C16 6.69 13.31 4 10 4ZM9.45 5.09H10.54V8.91H9.45V5.09ZM10 13.82C7.89 13.82 6.18 12.11 6.18 10C6.18 8.57 6.97 7.26999 8.24 6.60999L8.74 7.57999C7.83 8.04999 7.26 8.98 7.26 10C7.26 11.5 8.48 12.73 9.99 12.73C11.5 12.73 12.72 11.51 12.72 10C12.72 8.96 12.14 8.01999 11.2 7.54999L11.68 6.57001C12.99 7.22001 13.81 8.52999 13.81 9.98999C13.81 12.1 12.1 13.81 9.99 13.81L10 13.82Z" fill="white"/>
</svg>
