<svg width="20" height="20" viewBox="0 0 20 20" fill="none" xmlns="http://www.w3.org/2000/svg">
<path d="M5.02988 10H15.9699C15.9699 10 15.9999 12 14.9999 13C13.9999 14 12.9999 14 12.9999 14H7.88988C7.88988 14 6.73988 13.74 5.99988 13C4.99988 12 5.02988 10 5.02988 10Z" fill="white"/>
<path d="M13 15H8V16H13V15Z" fill="white"/>
<path d="M5 9H7V8H6V7H7V8H8V7C8 7 8.14 6 9 6C9 6 8 5 7 5H5V9Z" fill="white"/>
<path d="M8 9H9C9 9 9.02 8 10 8C10.98 8 11 9 11 9H12C12 9 12 7 10 7C8 7 8 9 8 9Z" fill="white"/>
<path d="M13 9H15C15 9 16 8 16 6L13 7V9Z" fill="white"/>
<path d="M10 6H11L12 7L13 6C13 6 14.19 4.76 15 5C15 5 14 4 13 4C13 4 11 4 10 6Z" fill="white"/>
</svg>
