<svg width="20" height="20" viewBox="0 0 20 20" fill="none" xmlns="http://www.w3.org/2000/svg">
<path d="M7.31526 6.96637L6.98162 4H5V5.00897H5.99081L6.98162 13H15.08L16 6.96637H7.31526Z" fill="white"/>
<path d="M7.95 15.9C8.47467 15.9 8.9 15.4747 8.9 14.95C8.9 14.4253 8.47467 14 7.95 14C7.42533 14 7 14.4253 7 14.95C7 15.4747 7.42533 15.9 7.95 15.9Z" fill="white"/>
<path d="M13.95 15.9C14.4747 15.9 14.9 15.4747 14.9 14.95C14.9 14.4253 14.4747 14 13.95 14C13.4253 14 13 14.4253 13 14.95C13 15.4747 13.4253 15.9 13.95 15.9Z" fill="white"/>
</svg>
