<svg width="20" height="20" viewBox="0 0 20 20" fill="none" xmlns="http://www.w3.org/2000/svg">
<path d="M17 10L17.4472 10.2236L17.559 10L17.4472 9.77639L17 10ZM17 10C17.4472 10.2236 17.4471 10.2238 17.447 10.2241L17.4467 10.2247L17.446 10.2261L17.444 10.23L17.4377 10.2422C17.4325 10.2522 17.4253 10.2659 17.416 10.2831C17.3974 10.3174 17.3705 10.3656 17.3351 10.4257C17.2642 10.5459 17.1591 10.714 17.0174 10.914C16.7344 11.3135 16.3035 11.8436 15.7072 12.3737C14.5103 13.4376 12.6464 14.5 10 14.5C7.3536 14.5 5.48971 13.4376 4.29282 12.3737C3.69647 11.8436 3.26557 11.3135 2.98261 10.914C2.84094 10.714 2.73575 10.5459 2.66493 10.4257C2.62951 10.3656 2.60263 10.3174 2.58404 10.2831C2.57474 10.2659 2.56751 10.2522 2.56231 10.2422L2.55604 10.23L2.55404 10.2261L2.55332 10.2247L2.55303 10.2241C2.5529 10.2238 2.55279 10.2236 3 10M17 10C17.4472 9.77639 17.4471 9.77616 17.447 9.77591L17.4467 9.77534L17.446 9.77391L17.444 9.76997L17.4377 9.75779C17.4325 9.7478 17.4253 9.7341 17.416 9.71694C17.3974 9.68261 17.3705 9.6344 17.3351 9.57428C17.2642 9.4541 17.1591 9.286 17.0174 9.08599C16.7344 8.68652 16.3035 8.15638 15.7072 7.6263C14.5103 6.56239 12.6464 5.5 10 5.5C7.3536 5.5 5.48971 6.56239 4.29282 7.6263C3.69647 8.15638 3.26557 8.68652 2.98261 9.08599C2.84094 9.286 2.73575 9.4541 2.66493 9.57428C2.62951 9.6344 2.60263 9.68261 2.58404 9.71694C2.57474 9.7341 2.56751 9.7478 2.56231 9.75779L2.55604 9.76997L2.55404 9.77391L2.55332 9.77534L2.55303 9.77591C2.5529 9.77616 2.55279 9.77639 3 10M3 10L2.55279 10.2236L2.44098 10L2.55279 9.77639L3 10Z" stroke="#BCBCBC"/>
<circle cx="10" cy="10" r="2.5" stroke="#BCBCBC"/>
</svg>
